<?xml version="1.0" encoding="utf-8"?>
<!-- Generator: Adobe Illustrator 22.0.1, SVG Export Plug-In . SVG Version: 6.00 Build 0)  -->
<svg version="1.1" id="Calque_1" xmlns="http://www.w3.org/2000/svg" xmlns:xlink="http://www.w3.org/1999/xlink" x="0px" y="0px"
	 viewBox="0 0 65 65" style="enable-background:new 0 0 65 65;" xml:space="preserve">
<style type="text/css">
	.st0{fill:#FFFFFF;}
</style>
<path class="st0" d="M48.3,26.5H32.1c-1.1,0-2.1-0.9-2.1-2.1c0-1.1,0.9-2.1,2.1-2.1h16.2c1.1,0,2.1,0.9,2.1,2.1
	C50.4,25.6,49.5,26.5,48.3,26.5z"/>
<path class="st0" d="M48.8,36.2l-31.3-0.1c-1.1,0-2.1-0.9-2.1-2.1c0-1.1,0.9-2.1,2.1-2.1L48.8,32c1.1,0,2.1,0.9,2.1,2.1
	C50.8,35.2,49.9,36.2,48.8,36.2z"/>
<path class="st0" d="M43.3,44.3c0,2.9-1.2,4.4-3.9,4.9c0,0,0,0,0,0c0,0-0.1,0-0.1,0c0,0,0-0.1,0-0.1v-1.5c0,0,0-0.1,0.1-0.1
	c1.2-0.6,1.8-1.7,1.8-3.1h-1.7c-0.1,0-0.1-0.1-0.1-0.1v-3.8c0-0.1,0.1-0.1,0.1-0.1h3.8c0.1,0,0.1,0.1,0.1,0.1V44.3z"/>
<path class="st0" d="M34.2,46.4H18c-1.1,0-2.1-0.9-2.1-2.1c0-1.1,0.9-2.1,2.1-2.1h16.2c1.1,0,2.1,0.9,2.1,2.1
	C36.3,45.5,35.4,46.4,34.2,46.4z"/>
<path class="st0" d="M50.6,44.3c0,2.9-1.2,4.4-3.9,4.9c0,0,0,0,0,0c0,0-0.1,0-0.1,0c0,0,0-0.1,0-0.1v-1.5c0,0,0-0.1,0.1-0.1
	c1.2-0.6,1.8-1.7,1.8-3.1h-1.7c-0.1,0-0.1-0.1-0.1-0.1v-3.8c0-0.1,0.1-0.1,0.1-0.1h3.8c0.1,0,0.1,0.1,0.1,0.1V44.3z"/>
<path class="st0" d="M22.9,22.8c0-2.9,1.2-4.4,3.9-4.9c0,0,0,0,0,0c0,0,0.1,0,0.1,0c0,0,0,0.1,0,0.1v1.5c0,0,0,0.1-0.1,0.1
	c-1.2,0.6-1.8,1.7-1.8,3.1h1.7c0.1,0,0.1,0.1,0.1,0.1v3.8c0,0.1-0.1,0.1-0.1,0.1h-3.8c-0.1,0-0.1-0.1-0.1-0.1V22.8z"/>
<path class="st0" d="M15.6,22.8c0-2.9,1.2-4.4,3.9-4.9c0,0,0,0,0,0c0,0,0.1,0,0.1,0c0,0,0,0.1,0,0.1v1.5c0,0,0,0.1-0.1,0.1
	c-1.2,0.6-1.8,1.7-1.8,3.1h1.7c0.1,0,0.1,0.1,0.1,0.1v3.8c0,0.1-0.1,0.1-0.1,0.1h-3.8c-0.1,0-0.1-0.1-0.1-0.1V22.8z"/>
</svg>
