<?xml version="1.0" encoding="utf-8"?>
<!-- Generator: Adobe Illustrator 22.0.1, SVG Export Plug-In . SVG Version: 6.00 Build 0)  -->
<svg version="1.1" id="Calque_1" xmlns="http://www.w3.org/2000/svg" xmlns:xlink="http://www.w3.org/1999/xlink" x="0px" y="0px"
	 viewBox="0 0 65 65" style="enable-background:new 0 0 65 65;" xml:space="preserve">
<style type="text/css">
	.st0{fill:#FFFFFF;}
</style>
<g>
	<path class="st0" d="M20.1,17.8h12c1.9,0,5.5,0,7.9,1.5c2.9,1.9,3.6,5,3.6,6.8c0,1.2-0.2,3.3-1.9,4.8c-0.2,0.3-1.8,1.7-3.6,2.2v0.1
		c4.9,0.9,6.8,4.4,6.8,7.8c0,3.8-2.2,6.3-4.7,7.6c-2.5,1.3-6.8,1.3-8.1,1.3h-12V17.8z M26.7,30.8h4.8c2,0,5.5,0,5.5-4.1
		c0-4-3.4-4-5.6-4h-4.7V30.8z M26.7,44.7h4.7c3.2,0,6.7,0,6.7-4.3c0-4.6-4.1-4.6-7.4-4.6h-4V44.7z"/>
</g>
</svg>
