<?xml version="1.0" encoding="utf-8"?>
<!-- Generator: Adobe Illustrator 22.0.1, SVG Export Plug-In . SVG Version: 6.00 Build 0)  -->
<svg version="1.1" id="Calque_1" xmlns="http://www.w3.org/2000/svg" xmlns:xlink="http://www.w3.org/1999/xlink" x="0px" y="0px"
	 viewBox="0 0 65 65" style="enable-background:new 0 0 65 65;" xml:space="preserve">
<style type="text/css">
	.st0{fill:#acefb8;}
</style>
<g>
	<path class="st0" d="M32.5,16c0.7,3.1,1.5,5.5,2.5,7.3c0.9,1.8,2.3,3.8,4.2,5.9l0.8,0.9c2.5,2.7,3.7,5.5,3.7,8.2
		c0,3-1.1,5.6-3.3,7.8c-2.2,2.2-4.8,3.3-7.9,3.3c-3,0-5.7-1.1-7.8-3.3s-3.3-4.8-3.3-7.8c0-2.7,1.2-5.5,3.7-8.2l0.8-0.9
		c1.9-2.1,3.3-4.1,4.2-5.9C31,21.5,31.8,19,32.5,16z"/>
</g>
</svg>
