<?xml version="1.0" encoding="utf-8"?>
<!-- Generator: Adobe Illustrator 22.0.1, SVG Export Plug-In . SVG Version: 6.00 Build 0)  -->
<svg version="1.1" id="Calque_1" xmlns="http://www.w3.org/2000/svg" xmlns:xlink="http://www.w3.org/1999/xlink" x="0px" y="0px"
	 viewBox="0 0 65 65" style="enable-background:new 0 0 65 65;" xml:space="preserve">
<style type="text/css">
	.st0{fill:#0EE20E;}
</style>
<g>
	<path class="st0" d="M32.8,18.5c-8.7,0-15.8,6.4-15.8,14.2c0,2.9,1,5.6,2.6,7.8c-0.2,2.6-0.8,6.2-2.6,8c0,0,5.4-0.8,9.1-3
		c0,0,0,0,0,0c1.5-1,3-2,3.3-2.3c0.2-0.2,0.5-0.3,0.7-0.2c0.2,0.1,0.3,0.3,0.3,0.5c0,0.3,0,0.4-3.1,2.4c1.7,0.6,3.5,0.9,5.4,0.9
		c8.7,0,15.8-6.4,15.8-14.2S41.6,18.5,32.8,18.5z"/>
</g>
</svg>
