<?xml version="1.0" encoding="utf-8"?>
<!-- Generator: Adobe Illustrator 22.0.1, SVG Export Plug-In . SVG Version: 6.00 Build 0)  -->
<svg version="1.1" id="Calque_1" xmlns="http://www.w3.org/2000/svg" xmlns:xlink="http://www.w3.org/1999/xlink" x="0px" y="0px"
	 viewBox="0 0 65 65" style="enable-background:new 0 0 65 65;" xml:space="preserve">
<style type="text/css">
	.st0{fill:#087208;}
</style>
<path class="st0" d="M31.4,28.3c-3,0-5.4,2.4-5.4,5.4v5.4h-9.6l-0.6,0.6l-2.8,2.8V20.7c0-1.8,1.5-3.3,3.3-3.3h26.1
	c1.8,0,3.3,1.5,3.3,3.3v7.6L31.4,28.3z M52.1,33.7v15.4l-2.8-2.8l-0.6-0.6H31.4c-1.8,0-3.3-1.5-3.3-3.3v-8.7c0-1.8,1.5-3.3,3.3-3.3
	h17.4C50.6,30.5,52.1,31.9,52.1,33.7z M37.9,38.1c0-0.6-0.5-1.1-1.1-1.1s-1.1,0.5-1.1,1.1s0.5,1.1,1.1,1.1S37.9,38.7,37.9,38.1
	L37.9,38.1z M41.2,38.1c0-0.6-0.5-1.1-1.1-1.1S39,37.5,39,38.1s0.5,1.1,1.1,1.1C40.7,39.2,41.2,38.7,41.2,38.1L41.2,38.1L41.2,38.1z
	 M44.5,38.1c0-0.6-0.5-1.1-1.1-1.1s-1.1,0.5-1.1,1.1s0.5,1.1,1.1,1.1C44,39.2,44.5,38.7,44.5,38.1L44.5,38.1z"/>
</svg>
