<?xml version="1.0" encoding="utf-8"?>
<!-- Generator: Adobe Illustrator 22.0.1, SVG Export Plug-In . SVG Version: 6.00 Build 0)  -->
<svg version="1.1" id="Calque_1" xmlns="http://www.w3.org/2000/svg" xmlns:xlink="http://www.w3.org/1999/xlink" x="0px" y="0px"
	 viewBox="0 0 65 65" style="enable-background:new 0 0 65 65;" xml:space="preserve">
<style type="text/css">
	.st0{fill:#FFFFFF;}
</style>
<g>
	<path class="st0" d="M19,16.9h10.2c4.7,0,10.3,0,14.2,4.2c3.1,3.3,4.3,7.8,4.3,12.2c0,7-3.2,11.2-5.9,13.2c-3.5,2.6-7.8,2.6-13,2.6
		H19V16.9z M23.9,45.4h4.8c3.4,0,6.9-0.2,9.2-1.8c4.5-3.1,4.6-8.3,4.6-10.2c0-1.2-0.1-6.7-3.4-10c-2.2-2.3-5.1-2.8-9.4-2.8h-5.9
		V45.4z"/>
</g>
</svg>
