<?xml version="1.0" encoding="utf-8"?>
<!-- Generator: Adobe Illustrator 22.0.1, SVG Export Plug-In . SVG Version: 6.00 Build 0)  -->
<svg version="1.1" id="Calque_1" xmlns="http://www.w3.org/2000/svg" xmlns:xlink="http://www.w3.org/1999/xlink" x="0px" y="0px"
	 viewBox="0 0 65 65" style="enable-background:new 0 0 65 65;" xml:space="preserve">
<style type="text/css">
	.st0{fill:#0EE20E;stroke:#00D12D;stroke-width:1.6;stroke-miterlimit:10;}
	.st1{fill:#0EE20E;stroke:#0EE20E;stroke-width:1.6;stroke-miterlimit:10;}
	.st2{fill:none;stroke:#0EE20E;stroke-width:3;stroke-miterlimit:10;}
	.st3{fill:#0EE20E;}
</style>
<path class="st0" d="M22.9,32c1.9,0,3.5-1.6,3.5-3.5S24.8,25,22.9,25s-3.5,1.6-3.5,3.5S21,32,22.9,32z M22.9,26.2
	c1.2,0,2.3,1,2.3,2.3s-1,2.3-2.3,2.3c-1.2,0-2.3-1-2.3-2.2S21.7,26.2,22.9,26.2z"/>
<path class="st1" d="M17.2,43.3c0.1,0,0.3-0.1,0.4-0.2L27.9,34l6.5,6.5c0.2,0.2,0.6,0.2,0.9,0c0.2-0.2,0.2-0.6,0-0.9l-3-3l5.8-6.3
	l7.1,6.5c0.3,0.2,0.7,0.2,0.9,0c0.2-0.3,0.2-0.7,0-0.9L38.5,29c-0.1-0.1-0.3-0.2-0.5-0.2s-0.3,0.1-0.4,0.2l-6.2,6.8l-3-3
	c-0.2-0.2-0.6-0.2-0.9,0l-10.7,9.4c-0.3,0.2-0.3,0.6-0.1,0.9C16.9,43.2,17,43.3,17.2,43.3z"/>
<path class="st2" d="M53.7,26.2l-0.1,23c0,1.1-0.9,2-2,2H11.4c-1.1,0-2-0.9-2-2v-30c0-1.1,0.9-2,2-2h33.2"/>
<path class="st3" d="M53.6,10c-4,0-7.3,3.3-7.3,7.3s3.3,7.3,7.3,7.3s7.3-3.3,7.3-7.3S57.6,10,53.6,10z M52.5,18.4h-3v-2h3v-3.1h2.1
	v3.1h3v2h-3v3.1h-2.1V18.4z"/>
</svg>
