<?xml version="1.0" encoding="utf-8"?>
<!-- Generator: Adobe Illustrator 22.0.1, SVG Export Plug-In . SVG Version: 6.00 Build 0)  -->
<svg version="1.1" id="Calque_1" xmlns="http://www.w3.org/2000/svg" xmlns:xlink="http://www.w3.org/1999/xlink" x="0px" y="0px"
	 viewBox="0 0 65 65" style="enable-background:new 0 0 65 65;" xml:space="preserve">
<style type="text/css">
	.st0{fill:none;stroke:#087208;stroke-width:2.4;stroke-miterlimit:10;}
	.st1{fill:#087208;stroke:#087208;stroke-width:1.6;stroke-miterlimit:10;}
</style>
<path class="st0" d="M52.6,49.2H12.4c-1.1,0-2-0.9-2-2v-30c0-1.1,0.9-2,2-2h40.2c1.1,0,2,0.9,2,2v30C54.6,48.3,53.7,49.2,52.6,49.2z
	"/>
<path class="st1" d="M23.9,30c1.9,0,3.5-1.6,3.5-3.5c0-1.9-1.6-3.5-3.5-3.5s-3.5,1.6-3.5,3.5C20.4,28.4,22,30,23.9,30z M23.9,24.2
	c1.2,0,2.3,1,2.3,2.3s-1,2.3-2.3,2.3c-1.2,0-2.3-1-2.3-2.2S22.7,24.2,23.9,24.2z"/>
<path class="st1" d="M18.2,41.3c0.1,0,0.3-0.1,0.4-0.2L28.9,32l6.5,6.5c0.2,0.2,0.6,0.2,0.9,0c0.2-0.2,0.2-0.6,0-0.9l-3-3l5.8-6.3
	l7.1,6.5c0.3,0.2,0.7,0.2,0.9,0c0.2-0.3,0.2-0.7,0-0.9l-7.6-6.9c-0.1-0.1-0.3-0.2-0.5-0.2c-0.2,0-0.3,0.1-0.4,0.2l-6.2,6.8l-3-3
	c-0.2-0.2-0.6-0.2-0.9,0l-10.7,9.4c-0.3,0.2-0.3,0.6-0.1,0.9C17.9,41.2,18,41.3,18.2,41.3z"/>
</svg>
