<?xml version="1.0" encoding="utf-8"?>
<!-- Generator: Adobe Illustrator 22.0.1, SVG Export Plug-In . SVG Version: 6.00 Build 0)  -->
<svg version="1.1" id="Calque_1" xmlns="http://www.w3.org/2000/svg" xmlns:xlink="http://www.w3.org/1999/xlink" x="0px" y="0px"
	 viewBox="0 0 65 65" style="enable-background:new 0 0 65 65;" xml:space="preserve">
<style type="text/css">
	.st0{fill:#acefb8;}
</style>
<g>
	<path class="st0" d="M28,19l0.3-0.9h15.6L43.6,19c-1.4,0-2.5,0.3-3.2,0.9c-0.7,0.6-1.4,1.9-2,3.9l-5.9,20.5
		c-0.4,1.4-0.6,2.4-0.6,2.9c0,0.6,0.2,1,0.7,1.3c0.6,0.4,1.6,0.6,3.2,0.7l-0.2,0.9H19.6l0.3-0.9c1.6,0,2.8-0.3,3.5-0.9
		c0.7-0.6,1.4-1.9,2-4l5.9-20.5c0.4-1.3,0.5-2.2,0.5-2.9c0-0.6-0.2-1-0.7-1.4C30.7,19.3,29.6,19.1,28,19z"/>
</g>
</svg>
