<?xml version="1.0" encoding="utf-8"?>
<!-- Generator: Adobe Illustrator 22.0.1, SVG Export Plug-In . SVG Version: 6.00 Build 0)  -->
<svg version="1.1" id="Calque_1" xmlns="http://www.w3.org/2000/svg" xmlns:xlink="http://www.w3.org/1999/xlink" x="0px" y="0px"
	 viewBox="0 0 65 65" style="enable-background:new 0 0 65 65;" xml:space="preserve">
<style type="text/css">
	.st0{fill:#087208;}
</style>
<g>
	<g>
		<path class="st0" d="M28.1,42.3l-1.6,1.6c-1.4,1.4-3.7,1.4-5,0c-0.7-0.7-1-1.5-1-2.5s0.4-1.8,1-2.5l5.9-5.9c1.2-1.2,3.5-3,5.2-1.3
			c0.8,0.8,2,0.8,2.8,0c0.8-0.8,0.8-2,0-2.8c-2.9-2.8-7.1-2.3-10.7,1.3l-5.9,5.9c-1.4,1.4-2.2,3.3-2.2,5.3c0,2,0.8,3.9,2.2,5.3
			c1.5,1.4,3.4,2.2,5.3,2.2c1.9,0,3.8-0.7,5.3-2.2l1.6-1.6c0.8-0.8,0.8-2,0-2.8C30.1,41.6,28.8,41.5,28.1,42.3z M46,19.6
			c-3.1-3-7.3-3.2-10.2-0.4l-2,2c-0.8,0.8-0.8,2,0,2.8c0.8,0.8,2,0.8,2.8,0l2-2c1.5-1.5,3.4-0.9,4.6,0.4c0.7,0.7,1,1.5,1,2.5
			c0,0.9-0.4,1.8-1,2.5l-6.3,6.2c-2.9,2.9-4.2,1.5-4.8,0.9c-0.8-0.8-2-0.8-2.8,0s-0.8,2,0,2.8c1.3,1.3,2.8,2,4.4,2
			c1.9,0,4-1,5.9-2.9l6.3-6.2c1.4-1.4,2.2-3.3,2.2-5.3C48.2,22.8,47.4,21,46,19.6z"/>
	</g>
</g>
</svg>
