<svg id="Calque_1" data-name="Calque 1" xmlns="http://www.w3.org/2000/svg" viewBox="0 0 26.9 26.89"><defs><style>.cls-1{fill:#00dd2e;}.cls-2{fill:none;stroke:#00dd2e;stroke-miterlimit:10;stroke-width:1.5px;}</style></defs><title>Plan de travail 1300</title><path class="cls-1" d="M10.09,8.23h3.67a4.16,4.16,0,0,1,2.91.65,2.45,2.45,0,0,1,.83,1.84,2.4,2.4,0,0,1-2,2.35c1.45.13,1.55.95,1.72,2.2a18,18,0,0,0,.3,1.86,1.51,1.51,0,0,0,.29.68H15.54c-.09-.53-.38-2.95-.52-3.32-.18-.55-.69-.55-1-.55h-1.8v3.87h-2.1Zm2,4.19h1.66a1.64,1.64,0,0,0,1-.27A1.29,1.29,0,0,0,15.35,11a1.2,1.2,0,0,0-.5-1.08,2.3,2.3,0,0,0-1.35-.22H12.12Z"/><rect class="cls-2" x="3.8" y="3.52" width="19.18" height="19.18" rx="3" ry="3" transform="translate(13.19 -5.63) rotate(45)"/></svg>