<?xml version="1.0" encoding="utf-8"?>
<!-- Generator: Adobe Illustrator 22.0.1, SVG Export Plug-In . SVG Version: 6.00 Build 0)  -->
<svg version="1.1" id="Calque_1" xmlns="http://www.w3.org/2000/svg" xmlns:xlink="http://www.w3.org/1999/xlink" x="0px" y="0px"
	 viewBox="0 0 65 65" style="enable-background:new 0 0 65 65;" xml:space="preserve">
<style type="text/css">
	.st0{fill:#FFFFFF;}
</style>
<path class="st0" d="M17.3,17.2h30.4c3.1,0,5.8,2.6,5.8,5.8v15.2c0,3.1-2.6,5.8-5.8,5.8H17.5l-1,1l-4.9,4.9V22.9
	C11.5,19.8,14.2,17.3,17.3,17.2z M36.3,30.6c0,1,0.9,1.9,1.9,1.9s1.9-0.9,1.9-1.9s-0.9-1.9-1.9-1.9S36.3,29.6,36.3,30.6L36.3,30.6z
	 M30.6,30.6L30.6,30.6c0,1,0.9,1.9,1.9,1.9c1,0,1.9-0.9,1.9-1.9s-0.9-1.9-1.9-1.9C31.5,28.7,30.6,29.6,30.6,30.6L30.6,30.6z
	 M24.8,30.6c0,1,0.9,1.9,1.9,1.9c1,0,1.9-0.9,1.9-1.9s-0.9-1.9-1.9-1.9S24.8,29.6,24.8,30.6L24.8,30.6z"/>
</svg>
