<?xml version="1.0" encoding="utf-8"?>
<!-- Generator: Adobe Illustrator 22.0.1, SVG Export Plug-In . SVG Version: 6.00 Build 0)  -->
<svg version="1.1" id="Calque_1" xmlns="http://www.w3.org/2000/svg" xmlns:xlink="http://www.w3.org/1999/xlink" x="0px" y="0px"
	 viewBox="0 0 65 65" style="enable-background:new 0 0 65 65;" xml:space="preserve">
<style type="text/css">
	.st0{fill:#0EE20E;}
</style>
<path class="st0" d="M28.9,19.1C20.1,19.1,13,26.2,13,35s7.1,15.9,15.9,15.9S44.8,43.8,44.8,35S37.7,19.1,28.9,19.1z M37.2,35.4
	l-11.7,7.9c-0.1,0.1-0.2,0.1-0.3,0.1c-0.1,0-0.2,0-0.2-0.1c-0.2-0.1-0.3-0.3-0.3-0.5V27.1c0-0.2,0.1-0.4,0.3-0.5
	c0.2-0.1,0.4-0.1,0.5,0l11.7,7.9c0.1,0.1,0.2,0.3,0.2,0.4S37.3,35.3,37.2,35.4z"/>
<path class="st0" d="M45.1,14.5c-4,0-7.3,3.3-7.3,7.3s3.3,7.3,7.3,7.3s7.3-3.3,7.3-7.3S49.1,14.5,45.1,14.5z M44,22.9h-3v-2h3v-3.1
	h2.1v3.1h3v2h-3V26H44V22.9z"/>
</svg>
