<?xml version="1.0" encoding="utf-8"?>
<!-- Generator: Adobe Illustrator 22.0.1, SVG Export Plug-In . SVG Version: 6.00 Build 0)  -->
<svg version="1.1" id="Calque_1" xmlns="http://www.w3.org/2000/svg" xmlns:xlink="http://www.w3.org/1999/xlink" x="0px" y="0px"
	 viewBox="0 0 65 65" style="enable-background:new 0 0 65 65;" xml:space="preserve">
<style type="text/css">
	.st0{fill:#087208;}
</style>
<path class="st0" d="M32.9,17.1C24.1,17.1,17,24.2,17,33s7.1,15.9,15.9,15.9S48.8,41.8,48.8,33S41.7,17.1,32.9,17.1z M41.2,33.4
	l-11.7,7.9c-0.1,0.1-0.2,0.1-0.3,0.1c-0.1,0-0.2,0-0.2-0.1c-0.2-0.1-0.3-0.3-0.3-0.5V25.1c0-0.2,0.1-0.4,0.3-0.5
	c0.2-0.1,0.4-0.1,0.5,0l11.7,7.9c0.1,0.1,0.2,0.3,0.2,0.4S41.3,33.3,41.2,33.4z"/>
</svg>
