<?xml version="1.0" encoding="utf-8"?>
<!-- Generator: Adobe Illustrator 22.0.1, SVG Export Plug-In . SVG Version: 6.00 Build 0)  -->
<svg version="1.1" id="Calque_1" xmlns="http://www.w3.org/2000/svg" xmlns:xlink="http://www.w3.org/1999/xlink" x="0px" y="0px"
	 viewBox="0 0 65 65" style="enable-background:new 0 0 65 65;" xml:space="preserve">
<style type="text/css">
	.st0{fill:#FFFFFF;}
</style>
<g>
	<path class="st0" d="M21.8,13.9h21.1v5.3H21.8V13.9z M50.8,23.7H13.9c-1.4,0-2.6,1.2-2.6,2.6v13.2c0,1.4,1.2,2.6,2.6,2.6h7.9v10.5
		h21.1V42.1h7.9c1.4,0,2.6-1.2,2.6-2.6V26.3C53.5,24.9,52.3,23.7,50.8,23.7z M40.3,50H24.5V36.9h15.8V50z M51.4,27.6
		c0,1.1-0.9,1.9-1.9,1.9c-1.1,0-1.9-0.9-1.9-1.9c0-1.1,0.9-1.9,1.9-1.9C50.6,25.7,51.4,26.6,51.4,27.6z"/>
</g>
</svg>
