<?xml version="1.0" encoding="utf-8"?>
<!-- Generator: Adobe Illustrator 22.0.1, SVG Export Plug-In . SVG Version: 6.00 Build 0)  -->
<svg version="1.1" id="Calque_1" xmlns="http://www.w3.org/2000/svg" xmlns:xlink="http://www.w3.org/1999/xlink" x="0px" y="0px"
	 viewBox="0 0 65 65" style="enable-background:new 0 0 65 65;" xml:space="preserve">
<style type="text/css">
	.st0{fill:#FFFFFF;}
	.st1{fill:#FFFFFF;stroke:#FFFFFF;stroke-width:1.7;stroke-miterlimit:10;}
</style>
<g>
	<path class="st0" d="M48.5,17.2h-32c-2.2,0-4,1.8-4,4v24c0,2.2,1.8,4,4,4h8v-4h-8v-18h32v18h-8v4h8c2.2,0,4-1.8,4-4v-24
		C52.5,19,50.7,17.2,48.5,17.2z M17.5,23.7c-0.8,0-1.5-0.7-1.5-1.5s0.7-1.5,1.5-1.5s1.5,0.7,1.5,1.5S18.3,23.7,17.5,23.7z
		 M21.5,23.7c-0.8,0-1.5-0.7-1.5-1.5s0.7-1.5,1.5-1.5c0.8,0,1.5,0.7,1.5,1.5S22.3,23.7,21.5,23.7z M48.5,23.2h-24v-2h24.1L48.5,23.2
		z"/>
</g>
<g>
	<path class="st1" d="M40.9,38.9l-7-7c-0.5-0.5-1.4-0.5-2,0l-7,7c-0.5,0.5-0.5,1.4,0,2c0.5,0.5,1.4,0.5,2,0l4.6-4.6v13.5
		c0,0.8,0.6,1.4,1.4,1.4c0.8,0,1.4-0.6,1.4-1.4V36.3l4.6,4.6c0.3,0.3,0.6,0.4,1,0.4c0.4,0,0.7-0.1,1-0.4
		C41.5,40.4,41.5,39.5,40.9,38.9z"/>
</g>
</svg>
