<?xml version="1.0" encoding="utf-8"?>
<!-- Generator: Adobe Illustrator 22.0.1, SVG Export Plug-In . SVG Version: 6.00 Build 0)  -->
<svg version="1.1" id="Calque_1" xmlns="http://www.w3.org/2000/svg" xmlns:xlink="http://www.w3.org/1999/xlink" x="0px" y="0px"
	 viewBox="0 0 65 65" style="enable-background:new 0 0 65 65;" xml:space="preserve">
<style type="text/css">
	.st0{fill:#087208;}
	.st1{fill:#087208;stroke:#087208;stroke-width:1.7;stroke-miterlimit:10;}
</style>
<g>
	<path class="st0" d="M16.3,45.3V27.1h32.3v18.2H16.3l-0.1,4h32.4c2.2,0,4-1.8,4-4V21.1c0-2.2-1.8-4-4-4H16.3c-2.2,0-4,1.8-4,4v24.2
		c0,2.2,1.8,4,4,4 M17.3,23.6c-0.8,0-1.5-0.7-1.5-1.5c0-0.8,0.7-1.5,1.5-1.5s1.5,0.7,1.5,1.5C18.9,22.9,18.2,23.6,17.3,23.6z
		 M21.4,23.6c-0.8,0-1.5-0.7-1.5-1.5c0-0.8,0.7-1.5,1.5-1.5s1.5,0.7,1.5,1.5C22.9,22.9,22.2,23.6,21.4,23.6z M48.6,23.1H24.4v-2
		h24.3L48.6,23.1z"/>
</g>
<g>
	<path class="st1" d="M25.4,36.6l4.7,4.7c0.4,0.4,1,0.4,1.3,0l8.7-8.7c0.4-0.4,0.4-1,0-1.3c-0.4-0.4-1-0.4-1.3,0l-8,7.9l-4.1-3.8
		c-0.2-0.2-0.4-0.3-0.7-0.3s-0.5,0.1-0.7,0.3C25.1,35.7,25.1,36.3,25.4,36.6z"/>
</g>
</svg>
