<?xml version="1.0" encoding="utf-8"?>
<!-- Generator: Adobe Illustrator 22.0.1, SVG Export Plug-In . SVG Version: 6.00 Build 0)  -->
<svg version="1.1" id="Calque_1" xmlns="http://www.w3.org/2000/svg" xmlns:xlink="http://www.w3.org/1999/xlink" x="0px" y="0px"
	 viewBox="0 0 65 65" style="enable-background:new 0 0 65 65;" xml:space="preserve">
<style type="text/css">
	.st0{fill:#FFFFFF;stroke:#FFFFFF;stroke-width:1.7;stroke-miterlimit:10;}
	.st1{fill:#FFFFFF;}
</style>
<g>
	<path class="st0" d="M25.7,48.1l7-7c0.5-0.5,0.5-1.4,0-2l-7-7c-0.5-0.5-1.4-0.5-2,0c-0.5,0.5-0.5,1.4,0,2l4.6,4.6H14.8
		c-0.8,0-1.4,0.6-1.4,1.4s0.6,1.4,1.4,1.4h13.5l-4.6,4.6c-0.3,0.3-0.4,0.6-0.4,1s0.1,0.7,0.4,1C24.2,48.7,25.1,48.7,25.7,48.1z"/>
</g>
<g>
	<path class="st1" d="M16.3,31.9l0.1-4.9h32.1v18.1l-10.1,0v4l10.1,0c2.2,0,4-1.8,4-4V21.1c0-2.2-1.8-4-4-4H16.4c-2.2,0-4,1.8-4,4
		v10.9 M17.4,23.6c-0.8,0-1.5-0.7-1.5-1.5s0.7-1.5,1.5-1.5s1.5,0.7,1.5,1.5S18.3,23.6,17.4,23.6z M21.5,23.6c-0.8,0-1.5-0.7-1.5-1.5
		s0.7-1.5,1.5-1.5s1.5,0.7,1.5,1.5S22.3,23.6,21.5,23.6z M48.6,23.1H24.5v-2h24.1L48.6,23.1z"/>
</g>
</svg>
