<?xml version="1.0" encoding="utf-8"?>
<!-- Generator: Adobe Illustrator 22.0.1, SVG Export Plug-In . SVG Version: 6.00 Build 0)  -->
<svg version="1.1" id="Calque_1" xmlns="http://www.w3.org/2000/svg" xmlns:xlink="http://www.w3.org/1999/xlink" x="0px" y="0px"
	 viewBox="0 0 65 65" style="enable-background:new 0 0 65 65;" xml:space="preserve">
<style type="text/css">
	.st0{fill:#087208;}
</style>
<g>
	<path class="st0" d="M31.3,43.5c0,0.6-0.3,1.1-0.8,1.3c-0.2,0.1-0.4,0.1-0.6,0.1c-0.3,0-0.7-0.1-0.9-0.3l-7.8-6.5h-4.2
		c-0.8,0-1.4-0.6-1.4-1.4v-5.7c0-0.8,0.6-1.4,1.4-1.4h4.2l7.8-6.5c0.4-0.4,1-0.4,1.5-0.2c0.5,0.2,0.8,0.7,0.8,1.3L31.3,43.5
		L31.3,43.5z M36.8,41.2c0,0-0.1,0-0.1,0c-0.4,0-0.7-0.1-1-0.4l-0.2-0.2c-0.5-0.5-0.6-1.3-0.1-1.9c1.1-1.4,1.6-3.2,1.6-5
		c0-1.9-0.6-3.7-1.9-5.2c-0.5-0.6-0.4-1.4,0.1-1.9l0.2-0.2c0.3-0.3,0.7-0.4,1.1-0.4c0.4,0,0.8,0.2,1,0.5c1.7,2.1,2.6,4.6,2.6,7.2
		c0,2.5-0.8,4.9-2.3,6.9C37.6,41,37.2,41.2,36.8,41.2z M42.7,45.7c-0.3,0.3-0.6,0.5-1,0.5c0,0,0,0-0.1,0c-0.4,0-0.7-0.1-1-0.4
		l-0.2-0.2c-0.5-0.5-0.6-1.4-0.1-1.9c2.3-2.7,3.6-6.2,3.6-9.8c0-3.7-1.4-7.3-3.8-10.1c-0.5-0.6-0.5-1.4,0.1-2l0.2-0.2
		c0.3-0.3,0.6-0.4,1.1-0.4c0.4,0,0.8,0.2,1,0.5c3,3.4,4.6,7.7,4.6,12.2C47,38.1,45.5,42.3,42.7,45.7z"/>
</g>
</svg>
