<?xml version="1.0" encoding="utf-8"?>
<!-- Generator: Adobe Illustrator 22.0.1, SVG Export Plug-In . SVG Version: 6.00 Build 0)  -->
<svg version="1.1" id="Calque_1" xmlns="http://www.w3.org/2000/svg" xmlns:xlink="http://www.w3.org/1999/xlink" x="0px" y="0px"
	 viewBox="0 0 65 65" style="enable-background:new 0 0 65 65;" xml:space="preserve">
<style type="text/css">
	.st0{fill:#087208;}
</style>
<g>
	<path class="st0" d="M33,17.6c-8.7,0-15.7,6.2-15.7,13.9c0,3.9,1.8,7.4,4.7,9.9c-0.6,3.7-4.8,5.2-4.5,6.2C21,49,28,45.9,29.7,45
		c1.1,0.2,2.2,0.3,3.3,0.3c8.7,0,15.7-6.2,15.7-13.9S41.6,17.6,33,17.6z M31.8,32.1c0,3.8-1.7,5.9-5,6.3c0,0,0,0,0,0
		c0,0-0.1,0-0.1,0c0,0-0.1-0.1-0.1-0.1v-1.9c0-0.1,0-0.1,0.1-0.1c1.5-0.8,2.2-2.1,2.3-3.9h-2.2c-0.1,0-0.2-0.1-0.2-0.2v-4.8
		c0-0.1,0.1-0.2,0.2-0.2h4.8c0.1,0,0.2,0.1,0.2,0.2L31.8,32.1L31.8,32.1z M40.4,32.1c0,3.7-1.5,5.6-4.9,6.3c0,0,0,0,0,0
		c0,0-0.1,0-0.1,0c0,0-0.1-0.1-0.1-0.1v-1.9c0-0.1,0-0.1,0.1-0.1c1.5-0.8,2.2-2.1,2.3-3.9h-2.2c-0.1,0-0.2-0.1-0.2-0.2v-4.8
		c0-0.1,0.1-0.2,0.2-0.2h4.8c0.1,0,0.2,0.1,0.2,0.2V32.1z"/>
</g>
</svg>
