<?xml version="1.0" encoding="utf-8"?>
<!-- Generator: Adobe Illustrator 22.0.1, SVG Export Plug-In . SVG Version: 6.00 Build 0)  -->
<svg version="1.1" id="Calque_1" xmlns="http://www.w3.org/2000/svg" xmlns:xlink="http://www.w3.org/1999/xlink" x="0px" y="0px"
	 viewBox="0 0 65 65" style="enable-background:new 0 0 65 65;" xml:space="preserve">
<style type="text/css">
	.st0{fill:#acefb8;}
</style>
<g>
	<path class="st0" d="M19.6,48.6l3.4-0.9c0.4-0.1,0.7-0.3,0.9-0.5c0.3-0.2,0.4-0.5,0.5-0.9l5.8-26.2h-6.8c-0.3,0-0.6,0.1-0.7,0.2
		s-0.3,0.4-0.5,0.6l-3.1,5.2h-1.6l2-8.6h28.8l-2,8.6h-1.6l-0.7-5.2c0-0.2-0.1-0.4-0.2-0.6c-0.1-0.2-0.3-0.2-0.6-0.2h-6.4l-5.8,26.2
		c-0.1,0.4,0,0.7,0.1,0.9c0.2,0.2,0.4,0.4,0.7,0.5l3.5,0.9L35.1,50H19.3L19.6,48.6z"/>
</g>
</svg>
