<?xml version="1.0" encoding="utf-8"?>
<!-- Generator: Adobe Illustrator 22.0.1, SVG Export Plug-In . SVG Version: 6.00 Build 0)  -->
<svg version="1.1" id="Calque_1" xmlns="http://www.w3.org/2000/svg" xmlns:xlink="http://www.w3.org/1999/xlink" x="0px" y="0px"
	 viewBox="0 0 65 65" style="enable-background:new 0 0 65 65;" xml:space="preserve">
<style type="text/css">
	.st0{fill:#087208;}
</style>
<g>
	<path class="st0" d="M36.8,49.1h-5.4l-6.2-8.8l-6.2,8.8h-4.8l8.7-11.5l-8.2-10.4H20l5.8,8.2l6.1-8.2h4.8l-8.5,10.7L36.8,49.1z"/>
	<path class="st0" d="M39.2,32.3l4.6-4.5c1-0.9,1.9-2,2.7-3c1-1.4,1.3-2.2,1.3-3.1c0-0.9-0.3-2.9-2.8-2.9c-2.8,0-2.9,2.4-2.9,3.1
		h-2.7c0-0.9,0.1-2.5,1.6-3.9c1.2-1,2.7-1.3,3.8-1.3c2.7,0,5.4,1.4,5.4,5.1c0,1.1-0.1,2-2,4.4c-0.5,0.6-2.7,2.9-3.3,3.5L42,32.6h8.4
		v2H39.2V32.3z"/>
</g>
</svg>
